<mxfile host="app.diagrams.net" agent="Mozilla/5.0 (Macintosh; Intel Mac OS X 10_15_7) AppleWebKit/537.36 (KHTML, like Gecko) Chrome/132.0.0.0 Safari/537.36" version="26.0.13">
  <diagram name="Page-1" id="_XCGJRsC9apOD0Hnpynx">
    <mxGraphModel dx="1224" dy="733" grid="1" gridSize="10" guides="1" tooltips="1" connect="1" arrows="1" fold="1" page="1" pageScale="1" pageWidth="850" pageHeight="1100" math="0" shadow="0">
      <root>
        <mxCell id="0" />
        <mxCell id="1" parent="0" />
        <mxCell id="oUj69M43p0sgvqFuir48-1" value="Browser" style="rounded=0;whiteSpace=wrap;html=1;" vertex="1" parent="1">
          <mxGeometry x="160" y="250" width="120" height="60" as="geometry" />
        </mxCell>
        <mxCell id="oUj69M43p0sgvqFuir48-21" style="edgeStyle=orthogonalEdgeStyle;rounded=0;orthogonalLoop=1;jettySize=auto;html=1;exitX=1;exitY=1;exitDx=0;exitDy=0;entryX=0.5;entryY=0;entryDx=0;entryDy=0;" edge="1" parent="1" source="oUj69M43p0sgvqFuir48-2" target="oUj69M43p0sgvqFuir48-20">
          <mxGeometry relative="1" as="geometry" />
        </mxCell>
        <mxCell id="oUj69M43p0sgvqFuir48-2" value="Web Server&lt;div&gt;(Flask)&lt;/div&gt;" style="rounded=0;whiteSpace=wrap;html=1;" vertex="1" parent="1">
          <mxGeometry x="360" y="250" width="120" height="60" as="geometry" />
        </mxCell>
        <mxCell id="oUj69M43p0sgvqFuir48-3" value="Data Store&lt;div&gt;TinyDB&lt;/div&gt;" style="shape=cylinder3;whiteSpace=wrap;html=1;boundedLbl=1;backgroundOutline=1;size=15;" vertex="1" parent="1">
          <mxGeometry x="560" y="240" width="70" height="80" as="geometry" />
        </mxCell>
        <mxCell id="oUj69M43p0sgvqFuir48-4" value="Content&lt;div&gt;(html, css)&lt;/div&gt;" style="rounded=0;whiteSpace=wrap;html=1;" vertex="1" parent="1">
          <mxGeometry x="360" y="370" width="120" height="60" as="geometry" />
        </mxCell>
        <mxCell id="oUj69M43p0sgvqFuir48-5" value="" style="endArrow=classic;html=1;rounded=0;" edge="1" parent="1">
          <mxGeometry width="50" height="50" relative="1" as="geometry">
            <mxPoint x="280" y="279.5" as="sourcePoint" />
            <mxPoint x="360" y="279.5" as="targetPoint" />
          </mxGeometry>
        </mxCell>
        <mxCell id="oUj69M43p0sgvqFuir48-6" value="http" style="edgeLabel;html=1;align=center;verticalAlign=middle;resizable=0;points=[];" vertex="1" connectable="0" parent="oUj69M43p0sgvqFuir48-5">
          <mxGeometry x="0.07" y="8" relative="1" as="geometry">
            <mxPoint y="1" as="offset" />
          </mxGeometry>
        </mxCell>
        <mxCell id="oUj69M43p0sgvqFuir48-7" value="" style="endArrow=classic;html=1;rounded=0;" edge="1" parent="1">
          <mxGeometry width="50" height="50" relative="1" as="geometry">
            <mxPoint x="480" y="279.5" as="sourcePoint" />
            <mxPoint x="560" y="279.5" as="targetPoint" />
          </mxGeometry>
        </mxCell>
        <mxCell id="oUj69M43p0sgvqFuir48-8" value="Local&lt;div&gt;Function&lt;/div&gt;" style="edgeLabel;html=1;align=center;verticalAlign=middle;resizable=0;points=[];" vertex="1" connectable="0" parent="oUj69M43p0sgvqFuir48-7">
          <mxGeometry x="0.07" y="8" relative="1" as="geometry">
            <mxPoint y="1" as="offset" />
          </mxGeometry>
        </mxCell>
        <mxCell id="oUj69M43p0sgvqFuir48-9" value="" style="endArrow=classic;html=1;rounded=0;" edge="1" parent="1">
          <mxGeometry width="50" height="50" relative="1" as="geometry">
            <mxPoint x="419.5" y="310" as="sourcePoint" />
            <mxPoint x="419.5" y="370" as="targetPoint" />
          </mxGeometry>
        </mxCell>
        <mxCell id="oUj69M43p0sgvqFuir48-10" value="File System" style="edgeLabel;html=1;align=center;verticalAlign=middle;resizable=0;points=[];" vertex="1" connectable="0" parent="oUj69M43p0sgvqFuir48-9">
          <mxGeometry x="0.07" y="8" relative="1" as="geometry">
            <mxPoint y="1" as="offset" />
          </mxGeometry>
        </mxCell>
        <mxCell id="oUj69M43p0sgvqFuir48-14" value="Templates&lt;div&gt;(HTML)&lt;/div&gt;" style="rounded=0;whiteSpace=wrap;html=1;" vertex="1" parent="1">
          <mxGeometry x="270" y="140" width="120" height="60" as="geometry" />
        </mxCell>
        <mxCell id="oUj69M43p0sgvqFuir48-15" style="edgeStyle=orthogonalEdgeStyle;rounded=0;orthogonalLoop=1;jettySize=auto;html=1;exitX=0.75;exitY=1;exitDx=0;exitDy=0;entryX=0.125;entryY=0.05;entryDx=0;entryDy=0;entryPerimeter=0;" edge="1" parent="1" source="oUj69M43p0sgvqFuir48-14" target="oUj69M43p0sgvqFuir48-2">
          <mxGeometry relative="1" as="geometry" />
        </mxCell>
        <mxCell id="oUj69M43p0sgvqFuir48-17" style="edgeStyle=orthogonalEdgeStyle;rounded=0;orthogonalLoop=1;jettySize=auto;html=1;exitX=0.25;exitY=1;exitDx=0;exitDy=0;entryX=0.5;entryY=0;entryDx=0;entryDy=0;" edge="1" parent="1" source="oUj69M43p0sgvqFuir48-16" target="oUj69M43p0sgvqFuir48-2">
          <mxGeometry relative="1" as="geometry" />
        </mxCell>
        <mxCell id="oUj69M43p0sgvqFuir48-16" value="Handlers&lt;div&gt;(python)&lt;/div&gt;" style="rounded=0;whiteSpace=wrap;html=1;" vertex="1" parent="1">
          <mxGeometry x="400" y="140" width="120" height="60" as="geometry" />
        </mxCell>
        <mxCell id="oUj69M43p0sgvqFuir48-19" style="edgeStyle=orthogonalEdgeStyle;rounded=0;orthogonalLoop=1;jettySize=auto;html=1;exitX=0.25;exitY=1;exitDx=0;exitDy=0;entryX=0.75;entryY=0;entryDx=0;entryDy=0;" edge="1" parent="1" source="oUj69M43p0sgvqFuir48-18" target="oUj69M43p0sgvqFuir48-2">
          <mxGeometry relative="1" as="geometry" />
        </mxCell>
        <mxCell id="oUj69M43p0sgvqFuir48-18" value="Timeago" style="rounded=0;whiteSpace=wrap;html=1;" vertex="1" parent="1">
          <mxGeometry x="535" y="140" width="120" height="60" as="geometry" />
        </mxCell>
        <mxCell id="oUj69M43p0sgvqFuir48-20" value="Location&lt;div&gt;Services&lt;/div&gt;" style="rounded=0;whiteSpace=wrap;html=1;" vertex="1" parent="1">
          <mxGeometry x="510" y="370" width="120" height="60" as="geometry" />
        </mxCell>
      </root>
    </mxGraphModel>
  </diagram>
</mxfile>
